<?xml version="1.0" encoding="utf-8"?>
<svg version="1.1" xmlns:xlink="http://www.w3.org/1999/xlink" xmlns="http://www.w3.org/2000/svg" width="225mm" height="135mm" viewBox="0 5 225 140">
  <g transform="translate(50 100) scale(1 -1)" fill-rule="evenodd" fill-opacity="1" fill="none" stroke-opacity="1" stroke-dasharray="none" stroke="black" stroke-width="0.4" stroke-linecap="butt" stroke-linejoin="round" stroke-miterlimit="3">
    <polygon points=" 0,79.282 -20,44.641 -2.6795,24.8213 20,44.641" fill="#f0a000"/>
    <polygon points=" 40,10 20,44.641 3.0401,29.8197 20.3606,10" fill="#f800d0"/>
    <polygon points=" -19.6394,10 20.3606,10 3.0401,29.8197" fill="#00d800"/>
    <polygon points=" -40,10 -19.6394,10 -2.6795,24.8213 -20,44.641" fill="#00b8ff"/>
    <g>
      <animateTransform id="a0" begin="2s" dur="1.5s" fill="freeze" attributeName="transform" type="translate" values="0 0; 90 0"/>
      <animateTransform id="a1" begin="a0.end+1s" dur="1.2s" fill="freeze" additive="sum" attributeName="transform" type="translate" values="0 0; -5 -14.5"/>
      <animateTransform id="a2" begin="a1.begin" dur="1.2s" fill="freeze" additive="sum" attributeName="transform" type="rotate" values="0 -2.6795 24.8213; -41 -2.6795 24.8213"/>
      <polygon points=" 0,79.282 -20,44.641 -2.6795,24.8213 20,44.641" fill="#f0a000"/>  <!-- top -->
      <g>
        <animateTransform id="a3" begin="a1.end+1.5s" dur="3s" fill="freeze" additive="sum" attributeName="transform" type="rotate" values="0 20 44.641; 180 20 44.641"/>
        <polygon points=" 40,10 20,44.641 3.0401,29.8197 20.3606,10" fill="#f800d0"/>    <!-- right -->
        <polygon points=" -19.6394,10 20.3606,10 3.0401,29.8197" fill="#00d800">         <!-- bottom -->
          <animateTransform id="a4" begin="a5.end+1s" dur="2s" fill="freeze" additive="sum" attributeName="transform" type="rotate" values="0 20.3606 10; 180 20.3606 10"/>
        </polygon>
      </g>
      <polygon points=" -40,10 -19.6394,10 -2.6795,24.8213 -20,44.641" fill="#00b8ff">   <!-- left -->
        <animateTransform id="a5" begin="a3.end+1.5s" dur="3s" fill="freeze" additive="sum" attributeName="transform" type="rotate" values="0 -20 44.641; -180 -20 44.641"/>
      </polygon>
      <animateTransform id="af" begin="a4.end+1s" dur="0.5s" fill="freeze" additive="sum" attributeName="transform" type="translate" values="0 0; -20 -17.5"/>
    </g>
  </g>
</svg>
